<?xml version="1.0" encoding="UTF-8" standalone="no"?>
<svg
   width="16"
   height="16"
   version="1.1"
   id="svg4"
   xmlns="http://www.w3.org/2000/svg"
   xmlns:svg="http://www.w3.org/2000/svg">
  <defs
     id="defs8" />
  <path
     fill="#8eef97"
     d="m 6,1.8396898 a 1,1 0 0 0 -0.707,0.293 l -4,4 a 1,1 0 0 0 0,1.414 l 4,3.9999962 a 1,1 0 0 0 0.707,0.293 h 8 a 1,1 0 0 0 1,-1 V 2.8396898 a 1,1 0 0 0 -1,-1 z m -1,4 a 1,1 0 0 1 0,2 1,1 0 0 1 0,-2 z"
     id="path2" />
  <g
     id="g1407"
     transform="translate(0,-0.75130089)">
    <path
       style="fill:none;stroke:#8eef97;stroke-width:0.5;stroke-linejoin:bevel;stroke-dasharray:none;stroke-opacity:1"
       d="m 14.798484,14.754406 -13.526803,0.0039"
       id="path1052" />
    <path
       style="fill:none;stroke:#8eef97;stroke-width:0.5;stroke-linejoin:bevel;stroke-dasharray:none;stroke-opacity:1"
       d="m 2.2387785,13.658016 -1.0943491,1.094349 1.1050698,1.037569"
       id="path1364" />
    <path
       style="fill:none;stroke:#8eef97;stroke-width:0.5;stroke-linejoin:bevel;stroke-dasharray:none;stroke-opacity:1"
       d="m 13.762832,13.647097 1.094349,1.094349 -1.10507,1.037569"
       id="path1364-3" />
  </g>
</svg>
